<svg viewBox="0 0 256 256" xmlns="http://www.w3.org/2000/svg">
  <title>Memotape</title>
  <defs>
    <clipPath id="m">
      <path
        d="M44,0H212A44,44 0 0 1 256,44V212A44,44 0 0 1 212,256H44A44,44 0 0 1 0,212V44A44,44 0 0 1 44,0Z"
      />
    </clipPath>
  </defs>
  <path
    d="M44,0H212A44,44 0 0 1 256,44V212A44,44 0 0 1 212,256H44A44,44 0 0 1 0,212V44A44,44 0 0 1 44,0Z"
    fill="#576b3c"
  />
  <g clip-path="url(#m)">
    <rect fill="#f2c14e" height="32" width="256" y="32" />
    <path
      d="M32,176A144,144 0 1 1 320,176A144,144 0 1 1 32,176Z"
      fill="#45392f"
    />
    <path d="M96,176A80,80 0 1 1 256,176A80,80 0 1 1 96,176Z" fill="#fcfaf6" />
    <path
      d="M164,133.67L164,150.7A28,28 0 0 1 188,150.7L188,133.67A44,44 0 0 1 206.66,144.44L191.91,152.96A28,28 0 0 1 203.91,173.74L218.66,165.23A44,44 0 0 1 218.66,186.77L203.91,178.26A28,28 0 0 1 191.91,199.04L206.66,207.56A44,44 0 0 1 188,218.33L188,201.3A28,28 0 0 1 164,201.3L164,218.33A44,44 0 0 1 145.34,207.56L160.09,199.04A28,28 0 0 1 148.09,178.26L133.34,186.77A44,44 0 0 1 133.34,165.23L148.09,173.74A28,28 0 0 1 160.09,152.96L145.34,144.44A44,44 0 0 1 164,133.67Z"
      fill="#576b3c"
    />
  </g>
</svg>
